<mxfile host="app.diagrams.net" modified="2022-09-20T11:33:55.117Z" agent="5.0 (Macintosh; Intel Mac OS X 10_15_7) AppleWebKit/537.36 (KHTML, like Gecko) Chrome/105.0.0.0 Safari/537.36" etag="OMN4B7OQ8xcag8ZkFkyL" version="20.3.2" type="github">
  <diagram id="gSWZitVo3gJuKKIx_Hka" name="第 1 页">
    <mxGraphModel dx="1018" dy="691" grid="1" gridSize="10" guides="1" tooltips="1" connect="1" arrows="1" fold="1" page="1" pageScale="1" pageWidth="827" pageHeight="1169" math="0" shadow="0">
      <root>
        <mxCell id="0" />
        <mxCell id="1" parent="0" />
        <mxCell id="BexTCemUMlB-r6mXzQgR-6" value="&lt;h1&gt;业务能力&lt;/h1&gt;&lt;div&gt;1.标签管理：标签信息的管理&lt;/div&gt;&lt;div&gt;&lt;br&gt;&lt;/div&gt;&lt;div&gt;2.知识库的生成&lt;/div&gt;&lt;div&gt;&lt;span style=&quot;white-space: pre;&quot;&gt;	&lt;/span&gt;1.文档上传：用户上传文档&lt;/div&gt;&lt;div&gt;&lt;span style=&quot;background-color: initial; white-space: pre;&quot;&gt;	&lt;/span&gt;&lt;span style=&quot;background-color: initial;&quot;&gt;2.NLP解析：NLP模型对文档内容进行识别&lt;/span&gt;&lt;/div&gt;&lt;div&gt;&lt;span style=&quot;white-space: pre;&quot;&gt;	&lt;/span&gt;3.用户标注：用户将标签标注到文档和法条上&lt;br&gt;&lt;/div&gt;&lt;div&gt;&lt;br&gt;&lt;/div&gt;&lt;div&gt;3.文档管理：文档信息的管理&lt;/div&gt;" style="text;html=1;strokeColor=default;fillColor=none;spacing=5;spacingTop=-20;whiteSpace=wrap;overflow=hidden;rounded=1;perimeterSpacing=1;" vertex="1" parent="1">
          <mxGeometry x="279" y="140" width="281" height="180" as="geometry" />
        </mxCell>
        <mxCell id="BexTCemUMlB-r6mXzQgR-7" value="" style="shape=flexArrow;endArrow=classic;html=1;rounded=0;exitX=0.5;exitY=1;exitDx=0;exitDy=0;" edge="1" parent="1" source="BexTCemUMlB-r6mXzQgR-6">
          <mxGeometry width="50" height="50" relative="1" as="geometry">
            <mxPoint x="390" y="430" as="sourcePoint" />
            <mxPoint x="420" y="420" as="targetPoint" />
          </mxGeometry>
        </mxCell>
        <mxCell id="BexTCemUMlB-r6mXzQgR-9" value="" style="whiteSpace=wrap;html=1;rounded=1;strokeColor=default;" vertex="1" parent="1">
          <mxGeometry x="289.25" y="420" width="260.5" height="240" as="geometry" />
        </mxCell>
        <mxCell id="BexTCemUMlB-r6mXzQgR-10" value="Label Service" style="rounded=1;whiteSpace=wrap;html=1;strokeColor=#d6b656;fillColor=#fff2cc;" vertex="1" parent="1">
          <mxGeometry x="394" y="430" width="120" height="40" as="geometry" />
        </mxCell>
        <mxCell id="BexTCemUMlB-r6mXzQgR-11" value="Doc Service" style="rounded=1;whiteSpace=wrap;html=1;strokeColor=#d6b656;fillColor=#fff2cc;" vertex="1" parent="1">
          <mxGeometry x="394" y="614" width="120" height="40" as="geometry" />
        </mxCell>
        <mxCell id="BexTCemUMlB-r6mXzQgR-12" value="File Service" style="rounded=1;whiteSpace=wrap;html=1;strokeColor=#d6b656;fillColor=#fff2cc;" vertex="1" parent="1">
          <mxGeometry x="394" y="480" width="120" height="40" as="geometry" />
        </mxCell>
        <mxCell id="BexTCemUMlB-r6mXzQgR-13" value="NLP Service" style="rounded=1;whiteSpace=wrap;html=1;strokeColor=default;" vertex="1" parent="1">
          <mxGeometry x="394" y="525" width="120" height="40" as="geometry" />
        </mxCell>
        <mxCell id="BexTCemUMlB-r6mXzQgR-14" value="Mark Service" style="rounded=1;whiteSpace=wrap;html=1;strokeColor=#d6b656;fillColor=#fff2cc;" vertex="1" parent="1">
          <mxGeometry x="394" y="570" width="120" height="40" as="geometry" />
        </mxCell>
        <mxCell id="BexTCemUMlB-r6mXzQgR-15" value="DDD" style="text;html=1;strokeColor=none;fillColor=none;align=center;verticalAlign=middle;whiteSpace=wrap;rounded=0;" vertex="1" parent="1">
          <mxGeometry x="430" y="350" width="60" height="30" as="geometry" />
        </mxCell>
        <mxCell id="BexTCemUMlB-r6mXzQgR-17" value="&lt;font style=&quot;font-size: 25px;&quot;&gt;服务&lt;/font&gt;" style="text;html=1;strokeColor=none;fillColor=none;align=center;verticalAlign=middle;whiteSpace=wrap;rounded=0;" vertex="1" parent="1">
          <mxGeometry x="289.25" y="530" width="60" height="30" as="geometry" />
        </mxCell>
        <mxCell id="BexTCemUMlB-r6mXzQgR-18" value="" style="shape=curlyBracket;whiteSpace=wrap;html=1;rounded=1;strokeColor=default;fontSize=25;" vertex="1" parent="1">
          <mxGeometry x="341" y="450" width="50" height="190" as="geometry" />
        </mxCell>
        <mxCell id="BexTCemUMlB-r6mXzQgR-19" value="1.合规知识管理&lt;br&gt;2.智能查询" style="rounded=0;whiteSpace=wrap;html=1;strokeColor=default;fontSize=25;" vertex="1" parent="1">
          <mxGeometry y="205" width="200" height="60" as="geometry" />
        </mxCell>
        <mxCell id="BexTCemUMlB-r6mXzQgR-20" value="" style="shape=flexArrow;endArrow=classic;html=1;rounded=0;fontSize=25;entryX=-0.011;entryY=0.538;entryDx=0;entryDy=0;entryPerimeter=0;exitX=1;exitY=0.5;exitDx=0;exitDy=0;" edge="1" parent="1" source="BexTCemUMlB-r6mXzQgR-19" target="BexTCemUMlB-r6mXzQgR-6">
          <mxGeometry width="50" height="50" relative="1" as="geometry">
            <mxPoint x="200" y="260" as="sourcePoint" />
            <mxPoint x="250" y="210" as="targetPoint" />
          </mxGeometry>
        </mxCell>
      </root>
    </mxGraphModel>
  </diagram>
</mxfile>
